<svg width="484" height="121" viewBox="0 0 484 121" fill="none" xmlns="http://www.w3.org/2000/svg">
<g clip-path="url(#clip0_345_398)">
<path d="M363 121C363 105.11 366.13 89.3757 372.211 74.6953C378.291 60.0149 387.204 46.676 398.44 35.4401C409.676 24.2042 423.015 15.2914 437.695 9.21058C452.376 3.12976 468.11 2.59692e-06 484 4.68063e-06L484 121L363 121Z" fill="white"/>
<path d="M242 121C242 105.11 245.13 89.3757 251.211 74.6953C257.291 60.0149 266.204 46.676 277.44 35.4401C288.676 24.2042 302.015 15.2914 316.695 9.21058C331.376 3.12976 347.11 2.59692e-06 363 4.68063e-06L363 121L242 121Z" fill="white"/>
<path d="M121 121C121 105.11 124.13 89.3757 130.211 74.6953C136.291 60.0149 145.204 46.676 156.44 35.4401C167.676 24.2042 181.015 15.2914 195.695 9.21058C210.376 3.12976 226.11 2.59692e-06 242 4.68063e-06L242 121L121 121Z" fill="white"/>
<path d="M-4.68063e-06 121C-3.29149e-06 105.11 3.12976 89.3757 9.21058 74.6953C15.2914 60.0149 24.2042 46.676 35.4401 35.4401C46.676 24.2042 60.0149 15.2914 74.6953 9.21058C89.3757 3.12976 105.11 2.59692e-06 121 4.68063e-06L121 121L-4.68063e-06 121Z" fill="white"/>
</g>
<defs>
<clipPath id="clip0_345_398">
<rect width="484" height="121" fill="white"/>
</clipPath>
</defs>
</svg>
