<svg width="1089" height="82" viewBox="0 0 1089 82" fill="none" xmlns="http://www.w3.org/2000/svg">
<rect x="176" y="0.000366211" width="81.9997" height="35" transform="rotate(90 176 0.000366211)" fill="white"/>
<rect x="456" width="81.9997" height="35" transform="rotate(90 456 0)" fill="white"/>
<rect x="738" y="0.000366211" width="81.9997" height="35" transform="rotate(90 738 0.000366211)" fill="white"/>
<rect x="1019" width="81.9997" height="35" transform="rotate(90 1019 0)" fill="white"/>
<rect x="245" width="81.9997" height="35" transform="rotate(90 245 0)" fill="black"/>
<rect x="527" y="0.000366211" width="81.9997" height="35" transform="rotate(90 527 0.000366211)" fill="black"/>
<rect x="808" y="0.000366211" width="81.9997" height="35" transform="rotate(90 808 0.000366211)" fill="black"/>
<rect x="1089" width="81.9997" height="35" transform="rotate(90 1089 0)" fill="black"/>
<rect x="106" y="0.000366211" width="81.9997" height="36" transform="rotate(90 106 0.000366211)" fill="black"/>
<rect x="387" y="0.000366211" width="81.9997" height="36" transform="rotate(90 387 0.000366211)" fill="black"/>
<rect x="668" width="81.9997" height="36" transform="rotate(90 668 0)" fill="black"/>
<rect x="949" width="81.9997" height="36" transform="rotate(90 949 0)" fill="black"/>
<rect x="35" y="0.000366211" width="81.9997" height="35" transform="rotate(90 35 0.000366211)" fill="white"/>
<rect x="316" width="81.9997" height="35" transform="rotate(90 316 0)" fill="white"/>
<rect x="597" y="0.000366211" width="81.9997" height="35" transform="rotate(90 597 0.000366211)" fill="white"/>
<rect x="878" width="81.9997" height="35" transform="rotate(90 878 0)" fill="white"/>
</svg>
