<svg width="213" height="360" viewBox="0 0 213 360" fill="none" xmlns="http://www.w3.org/2000/svg">
<path d="M212.913 70.7496C212.683 68.7068 212.449 66.664 212.219 64.6263C211.278 60.7231 209.564 57.3285 207.083 54.4427C203.007 48.5926 198.418 43.2114 193.521 38.2639C183.445 28.0915 172.296 19.0867 159.953 12.8919C151.969 8.88404 143.936 5.35707 135.364 3.3888C126.338 1.3164 117.044 0.133374 107.826 0.506373C89.9528 1.23412 73.0366 6.22852 56.7436 14.4545C50.2238 17.7449 43.9737 21.7784 38.214 26.5866C31.4248 32.2607 24.9025 38.2991 19.5735 45.7855C16.5084 50.0874 13.4733 54.4918 10.9864 59.272C8.53873 63.9755 6.66106 69.0395 4.88726 74.1091C2.33383 81.417 1.28123 89.0482 0.483428 96.8339C-0.905062 110.436 1.03692 124.737 4.26517 137.835C7.77882 152.075 13.1127 165.801 18.8773 179.017C29.5314 203.449 42.6199 226.422 52.7446 251.164C53.5677 253.173 54.356 255.203 55.1269 257.237C57.6942 264.658 59.8277 272.296 61.0122 280.167C61.2669 283.555 61.3007 286.959 61.0705 290.346C60.6763 292.545 60.1524 294.712 59.5031 296.833C58.6119 298.836 57.6084 300.766 56.5013 302.62C54.8563 304.757 53.0733 306.746 51.1784 308.596C47.817 311.254 44.245 313.528 40.5315 315.473C40.2106 315.615 39.894 315.757 39.5731 315.894C34.5385 318.034 30.3144 320.975 27.4958 326.429C24.952 331.358 23.849 338.625 25.3936 344.169C26.9467 349.748 29.9465 355.133 34.593 357.966C35.6769 358.625 36.8433 359.223 38.0577 359.73L51.4123 359.783C59.2096 356.395 66.797 352.438 73.4913 346.682C82.1405 339.245 90.0464 330.412 94.7115 319.029C96.4604 314.763 98.171 310.343 99.2545 305.767C100.329 301.227 100.838 296.47 101.268 291.814C101.988 283.993 101.089 276.057 99.9603 268.351C97.7699 253.409 92.2696 239.069 86.5714 225.51C80.8003 211.778 74.1353 198.564 67.6091 185.294C60.632 171.106 53.6943 156.832 48.0277 141.882C44.784 132.591 42.1173 123.01 40.6984 113.133C40.3067 108.316 40.2528 103.475 40.6316 98.6556C41.2396 94.9734 42.1157 91.3639 43.2512 87.8476C44.8115 84.1845 46.6525 80.6965 48.7308 77.3834C51.7865 73.2708 55.1826 69.5229 58.8285 66.0983C64.4011 61.5197 70.3864 57.6642 76.6505 54.4598C84.2962 51.0715 92.2281 48.6311 100.329 47.1688C107.367 46.3369 114.437 46.288 121.472 47.1346C128.181 48.4405 134.735 50.5543 141.066 53.4041C148.154 57.1321 154.854 61.7336 161.123 67.0498C167.48 72.96 173.384 79.5696 178.488 86.8975C181.496 91.2183 188.092 93.6803 192.698 93.6985C197.638 93.718 203.548 91.2338 206.964 87.01C210.488 82.6331 213.126 76.8812 212.913 70.7496Z" fill="black"/>
</svg>
