<svg width="447" height="279" viewBox="0 0 447 279" fill="none" xmlns="http://www.w3.org/2000/svg">
<path d="M53.93 278.118C48.1651 264.268 45 249.207 45 233.461C45 165.278 104.244 110 177.327 110C250.41 110 309.655 165.273 309.655 233.461C309.655 249.212 306.49 264.268 300.725 278.118H53.93Z" fill="white"/>
<path d="M77.2018 242.295C71.4613 236.495 66.1443 230.263 61.285 223.611C62.2344 224.925 63.1888 226.24 64.1382 227.555C56.3283 216.75 49.8135 204.968 44.7984 192.411C45.4119 193.965 46.0254 195.514 46.6389 197.068C41.8819 184.979 38.5661 172.318 36.9155 159.325C37.1346 161.051 37.3488 162.781 37.5679 164.507C36.1462 152.886 36.0731 141.14 37.5095 129.518C37.2904 131.244 37.0762 132.975 36.857 134.7C38.2106 124.217 40.7864 113.989 44.6378 104.234C44.0243 105.788 43.4108 107.336 42.7973 108.89C46.5269 99.6131 51.357 90.918 57.1268 82.9194C56.1774 84.2343 55.223 85.5492 54.2736 86.8641C60.5303 78.2886 67.79 70.6381 75.8142 63.9544C74.5823 64.9678 73.3504 65.9865 72.1186 67C81.4184 59.334 91.6239 53.0556 102.443 48.1805C100.987 48.8354 99.5361 49.4903 98.0803 50.1451C109.708 44.9738 121.904 41.476 134.384 39.6673C132.767 39.9012 131.146 40.1299 129.529 40.3638C142.535 38.5395 155.686 38.5759 168.686 40.4313C167.07 40.1975 165.448 39.9688 163.832 39.7349C177.075 41.6943 189.988 45.5299 202.312 51.065C200.856 50.4102 199.405 49.7553 197.949 49.1005C199.132 49.641 200.306 50.1919 201.479 50.7532C206.09 52.9673 210.482 54.2094 215.551 52.7178C219.787 51.4704 224.373 47.9778 226.462 43.7628C228.702 39.2412 229.822 33.758 228.303 28.7426C226.929 24.2105 224.159 19.138 219.913 17.0954C193.44 4.36199 164.44 -2.2126 135.348 0.671904C108.597 3.32253 82.2267 12.1891 59.9363 28.4775C49.3753 36.1955 39.462 45.1297 31.2284 55.6283C26.671 61.4337 22.3425 67.5405 18.6323 74.006C14.9269 80.4506 12.0299 87.2331 9.3032 94.1975C-1.33564 121.353 -2.23641 152.148 3.49931 180.686C9.60021 211.038 24.3631 239.291 44.0583 261.977C46.415 264.69 48.8641 267.315 51.3814 269.856C58.3197 276.867 70.4095 277.756 77.2018 269.856C83.741 262.253 84.6125 249.784 77.2018 242.295Z" fill="#6C6C6C"/>
<path d="M53.93 278.118C48.1651 264.268 45 249.207 45 233.461C45 165.278 104.244 110 177.327 110C250.41 110 309.655 165.273 309.655 233.461C309.655 249.212 306.49 264.268 300.725 278.118H53.93Z" fill="#DEDEDE"/>
<path d="M446.84 194H363.42L446.84 110V194Z" fill="black"/>
<path d="M364.368 194H280V110L364.368 194Z" fill="black"/>
<path d="M280 278L447 278L447 194L280 194L280 278Z" fill="black"/>
<path d="M280 197L447 197L447 193L280 193L280 197Z" fill="black"/>
<rect x="229" y="109.628" width="27" height="168.588" fill="black"/>
<rect x="177" y="109.628" width="29" height="168.588" fill="black"/>
<rect x="125" y="109.628" width="28" height="168.588" fill="black"/>
<rect x="72.9998" y="109.628" width="29" height="168.588" fill="black"/>
</svg>
