<svg width="787" height="607" viewBox="0 0 787 607" fill="none" xmlns="http://www.w3.org/2000/svg">
<path d="M250.339 507.599C247.412 508.465 244.481 509.325 241.561 510.188C235.605 511.058 229.777 510.416 224.081 508.268C213.225 505.407 202.632 501.463 192.402 496.775C171.363 487.129 151.126 475.103 133.823 459.527C122.63 449.452 112.05 439.012 103.188 426.794C93.8565 413.929 85.5332 400.112 79.3679 385.481C67.4199 357.109 61.9308 327.672 61.2603 297.272C60.9902 285.108 61.9196 272.919 64.2508 261.032C67.0074 247.017 70.4497 233.201 76.7122 220.381C80.3089 213.01 84.0657 205.624 88.727 198.869C93.3132 192.222 98.799 186.25 104.367 180.436C112.397 172.062 121.949 165.839 131.895 159.922C149.274 149.593 170.008 144.05 190.046 141.239C211.835 138.189 234.246 138.292 256.278 139.375C297.008 141.373 337.527 148.05 378.293 149.034C381.604 149.115 384.918 149.13 388.226 149.114C400.112 148.676 411.98 147.429 423.474 144.559C428.238 142.925 432.862 140.936 437.273 138.545C439.96 136.61 442.511 134.49 444.908 132.203C446.97 129.609 448.853 126.883 450.557 124.04C452.256 120.187 453.654 116.207 454.783 112.136C455.944 105.287 456.432 98.3405 456.374 91.3693C456.334 90.7825 456.297 90.2025 456.25 89.6188C455.499 80.4662 456.418 72.0996 461.751 64.4223C466.571 57.4901 475.596 51.4066 484.205 50.4958C492.869 49.5768 502.318 51.0353 509.509 56.5985C511.184 57.8972 512.837 59.3615 514.4 60.9559L524.134 81.7979C525.196 96.0172 525.339 110.25 522.402 124.166C518.608 142.146 512.391 159.801 500.381 173.921C495.88 179.214 491.144 184.538 485.744 188.977C480.385 193.38 474.323 197.028 468.342 200.493C458.292 206.31 446.916 209.666 435.684 212.524C413.905 218.062 390.543 218.067 368.096 217.294C345.36 216.511 322.678 214.02 300.021 211.779C275.797 209.384 251.485 207.102 227.179 207.213C212.275 207.716 197.397 209.295 183.021 213.002C176.227 215.279 169.645 218.099 163.405 221.582C158.869 224.741 154.624 228.275 150.693 232.159C146.871 236.795 143.489 241.765 140.515 247.001C137.167 254.244 134.559 261.8 132.568 269.553C130.412 281.009 129.532 292.677 129.733 304.39C130.685 318.373 133.126 332.234 137.011 345.774C140.979 357.273 146.028 368.352 152.262 378.841C158.881 388.544 166.48 397.52 174.912 405.705C185.08 414.549 196.146 422.261 207.867 428.87C220.454 435.261 233.659 440.524 247.257 444.107C255.273 446.217 263.373 455.05 266.73 462.238C270.33 469.947 271.249 480.675 268.011 488.547C264.646 496.681 258.78 504.254 250.339 507.599Z" fill="white"/>
<mask id="mask0_389_123" style="mask-type:alpha" maskUnits="userSpaceOnUse" x="32" y="404" width="755" height="203">
<rect x="786.866" y="606.382" width="754.575" height="202.227" transform="rotate(180 786.866 606.382)" fill="black"/>
</mask>
<g mask="url(#mask0_389_123)">
<path d="M48.0118 280.211C48.0118 356.336 84.4492 429.344 149.308 483.172C214.167 537.001 302.134 567.242 393.859 567.242C485.583 567.242 573.55 537.001 638.409 483.172C703.268 429.344 739.705 356.336 739.705 280.211L393.859 280.211H48.0118Z" fill="#FF002E"/>
</g>
<mask id="mask1_389_123" style="mask-type:alpha" maskUnits="userSpaceOnUse" x="0" y="201" width="756" height="204">
<rect x="0.851562" y="201.93" width="754.575" height="202.227" fill="black"/>
</mask>
<g mask="url(#mask1_389_123)">
<path d="M739.706 528.104C739.706 451.978 703.269 378.971 638.41 325.142C573.551 271.313 485.584 241.073 393.859 241.073C302.135 241.073 214.168 271.313 149.309 325.142C84.45 378.971 48.0127 451.978 48.0127 528.104L393.859 528.104L739.706 528.104Z" fill="#FF002E"/>
</g>
<mask id="mask2_389_123" style="mask-type:alpha" maskUnits="userSpaceOnUse" x="85" y="404" width="648" height="163">
<rect x="732.511" y="566.28" width="646.897" height="161.78" transform="rotate(180 732.511 566.28)" fill="black"/>
</mask>
<g mask="url(#mask2_389_123)">
<path d="M99.0908 305.346C99.0908 366.246 130.328 424.651 185.932 467.714C241.535 510.776 316.95 534.969 395.585 534.969C474.22 534.969 549.635 510.777 605.238 467.714C660.842 424.651 692.08 366.246 692.08 305.346L395.585 305.346H99.0908Z" fill="white"/>
</g>
<mask id="mask3_389_123" style="mask-type:alpha" maskUnits="userSpaceOnUse" x="58" y="242" width="648" height="163">
<rect x="58.6602" y="242.724" width="646.897" height="161.78" fill="black"/>
</mask>
<g mask="url(#mask3_389_123)">
<path d="M692.08 503.658C692.08 442.758 660.842 384.353 605.239 341.29C549.635 298.227 474.221 274.035 395.585 274.035C316.95 274.035 241.536 298.227 185.932 341.29C130.329 384.353 99.0911 442.758 99.091 503.658L395.585 503.658L692.08 503.658Z" fill="white"/>
</g>
<mask id="mask4_389_123" style="mask-type:alpha" maskUnits="userSpaceOnUse" x="436" y="246" width="53" height="305">
<rect x="488.38" y="246.725" width="303.35" height="52.3761" transform="rotate(90 488.38 246.725)" fill="black"/>
</mask>
<g mask="url(#mask4_389_123)">
<path d="M403.902 543.754C423.618 543.754 442.527 529.106 456.468 503.032C470.41 476.957 478.242 441.593 478.242 404.719C478.242 367.844 470.41 332.48 456.468 306.406C442.527 280.332 423.618 265.684 403.902 265.684L403.902 404.719L403.902 543.754Z" fill="#231F20"/>
</g>
<mask id="mask5_389_123" style="mask-type:alpha" maskUnits="userSpaceOnUse" x="383" y="259" width="54" height="304">
<rect x="383.628" y="562.711" width="303.35" height="52.3761" transform="rotate(-90 383.628 562.711)" fill="black"/>
</mask>
<g mask="url(#mask5_389_123)">
<path d="M468.105 265.683C448.389 265.683 429.48 280.331 415.538 306.405C401.597 332.48 393.765 367.844 393.765 404.718C393.765 441.593 401.597 476.957 415.538 503.031C429.48 529.105 448.389 543.753 468.105 543.753L468.105 404.718L468.105 265.683Z" fill="#231F20"/>
</g>
</svg>
