<svg width="230" height="114" viewBox="0 0 230 114" fill="none" xmlns="http://www.w3.org/2000/svg">
<g clip-path="url(#clip0_263_34)">
<path d="M230 113.774C230 98.833 227.025 84.0383 221.246 70.2346C215.467 56.4309 206.996 43.8885 196.317 33.3236C185.639 22.7587 172.961 14.3782 159.009 8.66053C145.056 2.94285 130.102 -6.17018e-07 115 3.18868e-08C99.898 6.80792e-07 84.9438 2.94285 70.9914 8.66053C57.039 14.3782 44.3615 22.7587 33.6827 33.3236C23.004 43.8885 14.5331 56.4309 8.75385 70.2346C2.97456 84.0383 -1.29173e-06 98.833 3.28465e-08 113.774L115 113.774L230 113.774Z" fill="#3E3E3E"/>
<path d="M191 114.696C191 104.957 189.047 95.3137 185.253 86.3161C181.459 77.3186 175.897 69.1432 168.887 62.2568C161.876 55.3703 153.553 49.9077 144.393 46.1808C135.233 42.4539 125.415 40.5357 115.5 40.5357C105.585 40.5357 95.7675 42.4539 86.6074 46.1808C77.4473 49.9077 69.1243 55.3704 62.1134 62.2568C55.1026 69.1432 49.5413 77.3186 45.7471 86.3161C41.9529 95.3137 40 104.957 40 114.696L115.5 114.696L191 114.696Z" fill="white"/>
</g>
<defs>
<clipPath id="clip0_263_34">
<rect width="230" height="114" fill="white"/>
</clipPath>
</defs>
</svg>
