<svg width="1033" height="607" viewBox="0 0 1033 607" fill="none" xmlns="http://www.w3.org/2000/svg">
<g clip-path="url(#clip0_389_150)">
<ellipse cx="283" cy="349.5" rx="283" ry="275.5" fill="#C4C4C4"/>
<mask id="mask0_389_150" style="mask-type:alpha" maskUnits="userSpaceOnUse" x="0" y="74" width="567" height="551">
<ellipse cx="283.313" cy="349.532" rx="283.023" ry="275.435" fill="#3E3E3E"/>
</mask>
<g mask="url(#mask0_389_150)">
<rect width="23.4859" height="528.252" transform="matrix(0.785547 0.618803 -0.619549 0.784958 302.418 -9.18921)" fill="#3E3E3E"/>
<rect width="23.4859" height="528.252" transform="matrix(0.785547 0.618803 -0.619549 0.784958 341.293 21.4355)" fill="#3E3E3E"/>
<rect width="23.4859" height="528.252" transform="matrix(0.785547 0.618803 -0.619549 0.784958 380.168 52.0571)" fill="#3E3E3E"/>
<rect width="23.4859" height="528.252" transform="matrix(0.785547 0.618803 -0.619549 0.784958 419.043 82.6819)" fill="#3E3E3E"/>
<rect width="23.4859" height="528.252" transform="matrix(0.785547 0.618803 -0.619549 0.784958 140.512 -119.219)" fill="#3E3E3E"/>
<rect width="23.4859" height="528.252" transform="matrix(0.785547 0.618803 -0.619549 0.784958 179.387 -88.5955)" fill="#3E3E3E"/>
<rect width="23.4859" height="528.252" transform="matrix(0.785547 0.618803 -0.619549 0.784958 218.262 -57.9729)" fill="#3E3E3E"/>
<rect width="23.4859" height="528.252" transform="matrix(0.785547 0.618803 -0.619549 0.784958 257.137 -27.3484)" fill="#3E3E3E"/>
<rect width="23.4859" height="528.252" transform="matrix(0.785547 0.618803 -0.619549 0.784958 640.445 194.128)" fill="#3E3E3E"/>
<rect width="23.4859" height="528.252" transform="matrix(0.785547 0.618803 -0.619549 0.784958 679.321 224.751)" fill="#3E3E3E"/>
<rect width="23.4859" height="528.252" transform="matrix(0.785547 0.618803 -0.619549 0.784958 718.196 255.375)" fill="#3E3E3E"/>
<rect width="23.4859" height="528.252" transform="matrix(0.785547 0.618803 -0.619549 0.784958 757.071 285.998)" fill="#3E3E3E"/>
<rect width="23.4859" height="528.252" transform="matrix(0.785547 0.618803 -0.619549 0.784958 478.54 84.0938)" fill="#3E3E3E"/>
<rect width="23.4859" height="528.252" transform="matrix(0.785547 0.618803 -0.619549 0.784958 517.415 114.719)" fill="#3E3E3E"/>
<rect width="23.4859" height="528.252" transform="matrix(0.785547 0.618803 -0.619549 0.784958 556.29 145.34)" fill="#3E3E3E"/>
<rect width="23.4859" height="528.252" transform="matrix(0.785547 0.618803 -0.619549 0.784958 595.165 175.964)" fill="#3E3E3E"/>
</g>
</g>
<path d="M495.487 507.599C492.56 508.465 489.63 509.325 486.71 510.188C480.753 511.058 474.926 510.416 469.23 508.268C458.374 505.407 447.781 501.463 437.551 496.775C416.512 487.129 396.275 475.103 378.972 459.527C367.778 449.452 357.199 439.012 348.337 426.794C339.005 413.929 330.682 400.112 324.517 385.481C312.569 357.109 307.079 327.672 306.409 297.272C306.139 285.108 307.068 272.919 309.399 261.032C312.156 247.017 315.598 233.201 321.861 220.381C325.458 213.01 329.214 205.624 333.876 198.869C338.462 192.222 343.948 186.25 349.516 180.436C357.546 172.062 367.098 165.839 377.044 159.922C394.423 149.593 415.156 144.05 435.195 141.239C456.984 138.189 479.394 138.292 501.427 139.375C542.157 141.373 582.676 148.05 623.442 149.034C626.753 149.115 630.066 149.13 633.374 149.114C645.261 148.676 657.128 147.429 668.623 144.559C673.387 142.925 678.011 140.936 682.422 138.545C685.109 136.61 687.66 134.49 690.057 132.203C692.119 129.609 694.002 126.883 695.705 124.04C697.404 120.187 698.802 116.207 699.932 112.136C701.092 105.287 701.581 98.3405 701.523 91.3693C701.483 90.7825 701.446 90.2025 701.399 89.6188C700.648 80.4662 701.567 72.0996 706.899 64.4223C711.72 57.4901 720.744 51.4066 729.354 50.4958C738.018 49.5768 747.467 51.0353 754.658 56.5985C756.333 57.8972 757.986 59.3615 759.548 60.9559L769.282 81.7979C770.345 96.0172 770.487 110.25 767.551 124.166C763.757 142.146 757.539 159.801 745.53 173.921C741.029 179.214 736.293 184.538 730.892 188.977C725.534 193.38 719.472 197.028 713.491 200.493C703.44 206.31 692.065 209.666 680.833 212.524C659.053 218.062 635.692 218.067 613.244 217.294C590.508 216.511 567.826 214.02 545.17 211.779C520.946 209.384 496.634 207.102 472.328 207.213C457.424 207.716 442.546 209.295 428.17 213.002C421.376 215.279 414.793 218.099 408.554 221.582C404.017 224.741 399.773 228.275 395.842 232.159C392.02 236.795 388.638 241.765 385.664 247.001C382.316 254.244 379.708 261.8 377.717 269.553C375.561 281.009 374.68 292.677 374.882 304.39C375.834 318.373 378.275 332.234 382.16 345.774C386.127 357.273 391.176 368.352 397.411 378.841C404.03 388.544 411.629 397.52 420.061 405.705C430.228 414.549 441.295 422.261 453.016 428.87C465.603 435.261 478.808 440.524 492.405 444.107C500.422 446.217 508.522 455.05 511.879 462.238C515.479 469.947 516.398 480.675 513.16 488.547C509.794 496.681 503.929 504.254 495.487 507.599Z" fill="white"/>
<mask id="mask1_389_150" style="mask-type:alpha" maskUnits="userSpaceOnUse" x="277" y="404" width="756" height="203">
<rect x="1032.02" y="606.382" width="754.575" height="202.227" transform="rotate(180 1032.02 606.382)" fill="black"/>
</mask>
<g mask="url(#mask1_389_150)">
<path d="M293.161 280.211C293.161 356.336 329.598 429.344 394.457 483.172C459.316 537.001 547.283 567.242 639.007 567.242C730.731 567.242 818.699 537.001 883.558 483.172C948.417 429.344 984.854 356.336 984.854 280.211L639.007 280.211H293.161Z" fill="#FF002E"/>
</g>
<mask id="mask2_389_150" style="mask-type:alpha" maskUnits="userSpaceOnUse" x="246" y="201" width="755" height="204">
<rect x="246" y="201.93" width="754.575" height="202.227" fill="black"/>
</mask>
<g mask="url(#mask2_389_150)">
<path d="M984.855 528.104C984.855 451.978 948.418 378.971 883.559 325.142C818.7 271.313 730.732 241.073 639.008 241.073C547.284 241.073 459.316 271.313 394.458 325.142C329.599 378.971 293.161 451.978 293.161 528.104L639.008 528.104L984.855 528.104Z" fill="#FF002E"/>
</g>
<mask id="mask3_389_150" style="mask-type:alpha" maskUnits="userSpaceOnUse" x="330" y="404" width="648" height="163">
<rect x="977.659" y="566.28" width="646.897" height="161.78" transform="rotate(180 977.659 566.28)" fill="black"/>
</mask>
<g mask="url(#mask3_389_150)">
<path d="M344.239 305.346C344.239 366.246 375.477 424.651 431.081 467.714C486.684 510.777 562.099 534.969 640.734 534.969C719.369 534.969 794.784 510.777 850.387 467.714C905.991 424.651 937.228 366.246 937.228 305.346L640.734 305.346H344.239Z" fill="white"/>
</g>
<mask id="mask4_389_150" style="mask-type:alpha" maskUnits="userSpaceOnUse" x="303" y="242" width="648" height="163">
<rect x="303.809" y="242.724" width="646.897" height="161.78" fill="black"/>
</mask>
<g mask="url(#mask4_389_150)">
<path d="M937.229 503.658C937.229 442.758 905.991 384.353 850.387 341.29C794.784 298.227 719.369 274.035 640.734 274.035C562.099 274.035 486.684 298.227 431.081 341.29C375.477 384.353 344.24 442.758 344.24 503.658L640.734 503.658L937.229 503.658Z" fill="white"/>
</g>
<mask id="mask5_389_150" style="mask-type:alpha" maskUnits="userSpaceOnUse" x="681" y="246" width="53" height="305">
<rect x="733.528" y="246.726" width="303.35" height="52.3761" transform="rotate(90 733.528 246.726)" fill="black"/>
</mask>
<g mask="url(#mask5_389_150)">
<path d="M649.05 543.754C668.767 543.754 687.675 529.106 701.617 503.032C715.558 476.958 723.391 441.593 723.391 404.719C723.391 367.845 715.558 332.48 701.617 306.406C687.675 280.332 668.767 265.684 649.05 265.684L649.05 404.719L649.05 543.754Z" fill="#231F20"/>
</g>
<mask id="mask6_389_150" style="mask-type:alpha" maskUnits="userSpaceOnUse" x="628" y="259" width="54" height="304">
<rect x="628.776" y="562.712" width="303.35" height="52.3761" transform="rotate(-90 628.776 562.712)" fill="black"/>
</mask>
<g mask="url(#mask6_389_150)">
<path d="M713.254 265.683C693.537 265.683 674.629 280.332 660.687 306.406C646.746 332.48 638.913 367.844 638.913 404.718C638.913 441.593 646.746 476.957 660.687 503.031C674.629 529.105 693.537 543.754 713.254 543.754L713.254 404.718L713.254 265.683Z" fill="#231F20"/>
</g>
<defs>
<clipPath id="clip0_389_150">
<rect width="575" height="375" fill="white" transform="translate(0 40)"/>
</clipPath>
</defs>
</svg>
