<svg width="218" height="137" viewBox="0 0 218 137" fill="none" xmlns="http://www.w3.org/2000/svg">
<path d="M169.078 173.739C172.614 168.085 175.713 162.196 178.348 156.087C177.836 157.292 177.32 158.498 176.809 159.703C181.02 149.8 183.962 139.436 185.508 128.812C185.323 130.125 185.136 131.435 184.951 132.748C186.38 122.535 186.504 112.202 185.187 101.98C185.362 103.338 185.542 104.698 185.717 106.056C184.494 96.9248 182.133 87.9933 178.554 79.4854C179.09 80.7474 179.623 82.0143 180.159 83.2763C176.883 75.6143 172.651 68.412 167.466 61.8468C168.292 62.8926 169.117 63.9345 169.943 64.9803C164.956 58.7515 159.182 53.2043 152.777 48.3906C153.831 49.1817 154.888 49.9718 155.942 50.7629C149.017 45.6174 141.455 41.3928 133.463 38.0685C134.687 38.5693 135.913 39.074 137.137 39.5748C127.891 35.7829 118.183 33.2418 108.26 31.8995C109.595 32.0793 110.926 32.2601 112.261 32.4399C101.61 31.0489 90.8345 31.0524 80.1742 32.3995C81.555 32.2247 82.9388 32.0449 84.3196 31.8701C73.2226 33.32 62.3886 36.2141 52.0541 40.456C53.3385 39.9262 54.628 39.3992 55.9124 38.8693C45.3985 43.2432 35.5444 48.969 26.5262 55.8565C27.5914 55.0421 28.6525 54.2288 29.7177 53.4144C28.8537 54.0826 27.9999 54.7565 27.1483 55.4383C23.8035 58.1239 20.439 60.024 15.9532 59.9965C12.204 59.973 7.7031 58.3217 5.11238 55.5776C2.33402 52.6337 0.280679 48.7158 0.499249 44.5778C0.69703 40.8385 1.93536 36.3844 5.01444 33.9086C24.2132 18.4734 46.7646 7.16211 71.3419 3.01055C93.9404 -0.808076 117.507 0.174267 139.24 7.67936C149.537 11.2358 159.55 15.8565 168.502 22.0307C173.455 25.4439 178.282 29.1358 182.673 33.2346C187.056 37.3188 190.842 41.8355 194.526 46.5275C208.893 64.8211 215.983 87.9987 217.137 110.911C218.363 135.279 212.017 159.942 200.457 181.454C199.073 184.027 197.595 186.553 196.044 189.031C191.769 195.865 181.986 199.175 174.758 194.659C167.801 190.313 164.512 181.039 169.078 173.739Z" fill="white"/>
</svg>
