<svg width="234" height="371" viewBox="0 0 234 371" fill="none" xmlns="http://www.w3.org/2000/svg">
<path d="M1.58735 34.5414C2.51381 32.7256 3.44508 30.9113 4.36988 29.1002C6.70303 25.8222 9.73651 23.3132 13.4654 21.5716C19.9529 17.6764 26.8621 14.4138 33.9761 11.6735C48.6095 6.04136 64.0655 1.90741 79.9405 0.847551C90.2092 0.161262 100.376 -0.0580013 110.637 1.38097C121.442 2.8963 132.256 5.34263 142.476 9.20998C162.289 16.7128 179.633 27.8262 195.219 41.7131C201.457 47.2688 207.149 53.414 212.037 60.0939C217.796 67.9738 223.137 76.0914 226.666 85.1025C228.696 90.2817 230.66 95.545 231.885 100.949C233.092 106.267 233.541 111.703 233.871 117.104C234.344 124.889 233.027 132.403 231.374 139.962C228.48 153.168 221.62 165.753 213.711 176.726C205.108 188.655 194.631 199.409 183.838 209.523C163.889 228.222 141.685 244.632 122.228 263.823C120.647 265.381 119.098 266.971 117.567 268.573C112.258 274.508 107.364 280.811 103.459 287.693C102.065 290.754 100.913 293.912 100.062 297.156C99.7849 299.356 99.6631 301.576 99.6973 303.8C100.042 306.007 100.536 308.189 101.171 310.339C102.317 312.959 103.666 315.493 105.187 317.941C108.088 321.701 111.351 325.184 114.88 328.414C115.194 328.669 115.503 328.923 115.818 329.173C120.766 333.089 124.542 337.443 125.919 343.602C127.16 349.166 126.019 356.359 122.471 360.935C118.903 365.541 113.775 369.414 107.635 370.28C106.203 370.48 104.698 370.592 103.17 370.601L88.1703 365.55C80.5314 359.416 73.3141 352.832 67.6879 344.912C60.4187 334.678 54.44 323.429 52.9321 311.04C52.3664 306.396 51.894 301.625 52.1761 296.947C52.4565 292.306 53.4432 287.678 54.4843 283.176C56.2367 275.612 59.8422 268.56 63.6311 261.81C70.9791 248.723 81.8437 237.46 92.6743 227.001C103.644 216.407 115.446 206.638 127.112 196.765C139.583 186.208 152.039 175.555 163.289 163.787C169.969 156.368 176.097 148.458 180.922 139.796C182.938 135.456 184.583 130.965 185.735 126.33C186.258 122.666 186.457 118.968 186.334 115.258C185.783 111.249 184.859 107.295 183.612 103.414C181.53 98.4152 178.946 93.6258 175.977 89.0424C171.223 82.6478 165.77 76.7696 159.792 71.3917C152.323 65.3148 144.223 60.0119 135.613 55.5559C127.989 52.0932 120.074 49.3483 111.904 47.4508C103.95 46.106 95.9047 45.5732 87.8698 45.8117C78.6968 46.5789 69.674 48.3086 60.9014 50.8691C51.835 53.9494 43.0481 57.8543 34.9228 62.7339C30.1334 65.6116 21.9275 65.3872 16.7541 63.6454C11.2064 61.7776 5.38853 57.2058 2.93932 51.9656C0.418108 46.5412 -0.658815 40.1739 1.58735 34.5414Z" fill="#FF002E"/>
</svg>
