<svg width="527" height="410" viewBox="0 0 527 410" fill="none" xmlns="http://www.w3.org/2000/svg">
<path d="M184.112 104.765C187.365 127.187 173.125 152.756 150.311 163.885C125.691 175.895 100.413 166.546 93.8559 143C90.4115 130.644 92.8133 116.838 99.4273 104.765H184.112Z" fill="#231F20"/>
<path d="M0.461023 104.766C-2.79151 127.188 11.4481 152.756 34.2625 163.886C58.8821 175.896 84.1606 166.546 90.7175 143C94.162 130.645 91.7602 116.838 85.1462 104.766H0.461023Z" fill="#231F20"/>
<path d="M129.414 104.765H60.1106V132.422H129.414V104.765Z" fill="#231F20"/>
<path d="M444.555 62.3789C443.74 60.6276 442.922 58.8775 442.109 57.1307C440.103 53.9344 437.557 51.4226 434.474 49.5939C429.08 45.601 423.367 42.1793 417.506 39.2366C405.45 33.1877 392.78 28.5007 379.878 26.6743C371.532 25.4922 363.286 24.7534 355.021 25.5646C346.318 26.4189 337.64 28.1457 329.494 31.2363C313.701 37.2327 300.036 46.7445 287.892 58.9491C283.032 63.8317 278.635 69.2958 274.908 75.3033C270.516 82.3904 266.473 89.7223 263.93 97.9872C262.466 102.737 261.059 107.57 260.255 112.573C259.464 117.496 259.291 122.57 259.212 127.618C259.102 134.894 260.433 142.008 262.038 149.184C264.846 161.719 270.846 173.88 277.64 184.584C285.03 196.221 293.897 206.855 302.998 216.905C319.82 235.486 338.389 252.039 354.829 271.055C356.165 272.599 357.476 274.171 358.773 275.753C363.283 281.597 367.47 287.764 370.876 294.422C372.113 297.366 373.158 300.388 373.96 303.474C374.262 305.552 374.439 307.64 374.489 309.724C374.287 311.775 373.964 313.795 373.524 315.778C372.687 318.175 371.683 320.48 370.537 322.696C368.317 326.07 365.795 329.165 363.048 332.009C362.803 332.232 362.562 332.453 362.315 332.671C358.443 336.084 355.535 339.968 354.635 345.672C353.825 350.824 355.002 357.629 358.037 362.106C361.09 366.613 365.382 370.513 370.388 371.647C371.555 371.91 372.778 372.094 374.017 372.182L385.995 368.233C391.971 362.881 397.589 357.086 401.87 349.954C407.402 340.739 411.853 330.504 412.64 318.965C412.936 314.641 413.152 310.191 412.759 305.789C412.369 301.423 411.407 297.032 410.406 292.755C408.72 285.57 405.551 278.769 402.244 272.24C395.831 259.583 386.631 248.451 377.488 238.076C368.227 227.567 358.32 217.787 348.521 207.916C338.044 197.363 327.577 186.72 318.047 175.095C312.373 167.788 307.13 160.049 302.917 151.673C301.131 147.498 299.64 143.201 298.544 138.794C297.992 135.331 297.701 131.853 297.671 128.38C297.977 124.649 298.587 120.99 299.462 117.417C300.974 112.838 302.899 108.482 305.145 104.34C308.773 98.593 312.985 93.3669 317.642 88.6374C323.481 83.3306 329.859 78.7828 336.681 75.0558C342.737 72.2087 349.055 70.0498 355.609 68.6989C362.008 67.855 368.509 67.7773 375.029 68.4223C382.489 69.6228 389.862 71.718 397.06 74.5791C404.516 77.943 411.773 82.0656 418.529 87.0674C422.511 90.0171 429.153 90.237 433.284 88.875C437.714 87.4145 442.269 83.4325 444.07 78.6471C445.923 73.6927 446.572 67.7784 444.555 62.3789Z" fill="white"/>
<path d="M146.546 187.876C276.247 187.876 381.394 287.358 381.394 410.082H146.546V187.876Z" fill="#231F20"/>
<path d="M146.686 334.139C104.604 334.139 70.4907 368.22 70.4907 410.265H146.686V334.139Z" fill="#C4C4C4"/>
<path d="M184.573 87.4517H92.741L184.573 5.4884V87.4517Z" fill="#231F20"/>
<path d="M-6.10352e-05 87.4515H91.832L-6.10352e-05 5.48828V87.4515Z" fill="#231F20"/>
</svg>
