<svg width="474" height="227" viewBox="0 0 474 227" fill="none" xmlns="http://www.w3.org/2000/svg">
<mask id="mask0_353_1452" style="mask-type:alpha" maskUnits="userSpaceOnUse" x="18" y="113" width="456" height="114">
<rect x="473.052" y="227" width="454.13" height="113.086" transform="rotate(180 473.052 227)" fill="black"/>
</mask>
<g mask="url(#mask0_353_1452)">
<path d="M28.3831 44.6021C28.3831 87.1718 50.3123 127.998 89.3467 158.099C128.381 188.201 181.323 205.112 236.526 205.112C291.729 205.112 344.671 188.201 383.705 158.099C422.74 127.998 444.669 87.1719 444.669 44.6021L236.526 44.6021H28.3831Z" fill="white"/>
</g>
<mask id="mask1_353_1452" style="mask-type:alpha" maskUnits="userSpaceOnUse" x="0" y="0" width="455" height="114">
<rect y="0.826904" width="454.13" height="113.086" fill="black"/>
</mask>
<g mask="url(#mask1_353_1452)">
<path d="M444.669 183.224C444.669 140.655 422.739 99.8283 383.705 69.7269C344.671 39.6256 291.729 22.7148 236.526 22.7148C181.323 22.7148 128.381 39.6256 89.3465 69.727C50.3121 99.8283 28.3828 140.655 28.3828 183.224L236.526 183.224L444.669 183.224Z" fill="white"/>
</g>
<mask id="mask2_353_1452" style="mask-type:alpha" maskUnits="userSpaceOnUse" x="189" y="0" width="38" height="218">
<rect x="226.565" width="217.921" height="36.7687" transform="rotate(90 226.565 0)" fill="black"/>
</mask>
<g mask="url(#mask2_353_1452)">
<path d="M167.262 213.38C181.103 213.38 194.377 202.857 204.164 184.125C213.951 165.394 219.449 139.989 219.449 113.499C219.449 87.0094 213.951 61.6044 204.164 42.8732C194.377 24.142 181.103 13.6189 167.262 13.6189L167.262 113.499L167.262 213.38Z" fill="black"/>
</g>
<mask id="mask3_353_1452" style="mask-type:alpha" maskUnits="userSpaceOnUse" x="153" y="9" width="37" height="218">
<rect x="153.029" y="226.999" width="217.921" height="36.7687" transform="rotate(-90 153.029 226.999)" fill="black"/>
</mask>
<g mask="url(#mask3_353_1452)">
<path d="M212.333 13.619C198.492 13.619 185.217 24.1421 175.43 42.8733C165.643 61.6045 160.145 87.0094 160.145 113.499C160.145 139.989 165.643 165.394 175.43 184.125C185.217 202.857 198.492 213.38 212.333 213.38L212.333 113.499L212.333 13.619Z" fill="black"/>
</g>
</svg>
