<svg width="78" height="229" viewBox="0 0 78 229" fill="none" xmlns="http://www.w3.org/2000/svg">
<path d="M-4.97983e-06 0.572066C27.03 -3.46336 57.8533 14.2037 71.2696 42.5096C85.7482 73.0552 74.4772 104.418 46.092 112.553C31.1979 116.827 14.5536 113.847 -3.87112e-07 105.641L-4.97983e-06 0.572066Z" fill="#231F20"/>
<path d="M0.000244116 228.428C27.0302 232.464 57.8536 214.797 71.2698 186.491C85.7485 155.945 74.4775 124.582 46.0922 116.447C31.1981 112.173 14.5538 115.153 0.000239523 123.359L0.000244116 228.428Z" fill="#231F20"/>
<path d="M-3.75851e-06 68.4366L0 154.421L33.341 154.421L33.341 68.4366L-3.75851e-06 68.4366Z" fill="#231F20"/>
</svg>
