<svg width="254" height="285" viewBox="0 0 254 285" fill="none" xmlns="http://www.w3.org/2000/svg">
<mask id="mask0_353_1115" style="mask-type:alpha" maskUnits="userSpaceOnUse" x="0" y="0" width="254" height="285">
<rect width="254" height="285" fill="#231F20"/>
</mask>
<g mask="url(#mask0_353_1115)">
<path d="M-190.369 77.4147L164.164 435.074" stroke="white" stroke-width="3"/>
<path d="M-97.3191 -14.8217L257.214 342.838" stroke="white" stroke-width="3"/>
<path d="M-4.26929 -107.058L350.264 250.602" stroke="white" stroke-width="3"/>
<path d="M-167.106 54.3556L187.427 412.015" stroke="white" stroke-width="3"/>
<path d="M-74.0566 -37.8807L280.476 319.779" stroke="white" stroke-width="3"/>
<path d="M18.9929 -130.117L373.526 227.543" stroke="white" stroke-width="3"/>
<path d="M-143.844 31.2965L210.689 388.956" stroke="white" stroke-width="3"/>
<path d="M-50.7942 -60.9398L303.739 296.72" stroke="white" stroke-width="3"/>
<path d="M42.2554 -153.176L396.788 204.484" stroke="white" stroke-width="3"/>
<path d="M-120.582 8.23743L233.952 365.897" stroke="white" stroke-width="3"/>
<path d="M-27.532 -83.9988L327.001 273.661" stroke="white" stroke-width="3"/>
<path d="M65.5178 -176.235L420.051 181.424" stroke="white" stroke-width="3"/>
<path d="M-184.553 71.6499L169.98 429.309" stroke="white" stroke-width="3"/>
<path d="M-91.5034 -20.5864L263.03 337.073" stroke="white" stroke-width="3"/>
<path d="M1.54639 -112.823L356.08 244.837" stroke="white" stroke-width="3"/>
<path d="M-161.291 48.5908L193.243 406.25" stroke="white" stroke-width="3"/>
<path d="M-68.2412 -43.6454L286.292 314.014" stroke="white" stroke-width="3"/>
<path d="M24.8086 -135.882L379.342 221.778" stroke="white" stroke-width="3"/>
<path d="M-138.028 25.5317L216.505 383.191" stroke="white" stroke-width="3"/>
<path d="M-44.9785 -66.7046L309.555 290.955" stroke="white" stroke-width="3"/>
<path d="M48.071 -158.941L402.604 198.719" stroke="white" stroke-width="3"/>
<path d="M-114.766 2.47266L239.767 360.132" stroke="white" stroke-width="3"/>
<path d="M-21.7163 -89.7635L332.817 267.896" stroke="white" stroke-width="3"/>
<path d="M71.3335 -182L425.867 175.66" stroke="white" stroke-width="3"/>
<path d="M-196.184 83.1794L158.349 440.839" stroke="white" stroke-width="3"/>
<path d="M-103.135 -9.05688L251.399 348.603" stroke="white" stroke-width="3"/>
<path d="M-10.085 -101.293L344.448 256.366" stroke="white" stroke-width="3"/>
<path d="M-172.922 60.1202L181.611 417.78" stroke="white" stroke-width="3"/>
<path d="M-79.8723 -32.1158L274.661 325.544" stroke="white" stroke-width="3"/>
<path d="M13.1775 -124.352L367.711 233.307" stroke="white" stroke-width="3"/>
<path d="M-149.659 37.0613L204.874 394.721" stroke="white" stroke-width="3"/>
<path d="M-56.6099 -55.175L297.923 302.485" stroke="white" stroke-width="3"/>
<path d="M36.4397 -147.411L390.973 210.248" stroke="white" stroke-width="3"/>
<path d="M-126.397 14.0022L228.136 371.662" stroke="white" stroke-width="3"/>
<path d="M-33.3474 -78.234L321.186 279.426" stroke="white" stroke-width="3"/>
<path d="M59.7024 -170.47L414.236 187.189" stroke="white" stroke-width="3"/>
<path d="M-202 88.9442L152.533 446.604" stroke="white" stroke-width="3"/>
<path d="M-108.95 -3.29211L245.583 354.367" stroke="white" stroke-width="3"/>
<path d="M-15.9004 -95.5284L338.633 262.131" stroke="white" stroke-width="3"/>
<path d="M-178.738 65.885L175.796 423.545" stroke="white" stroke-width="3"/>
<path d="M-85.688 -26.3512L268.845 331.308" stroke="white" stroke-width="3"/>
<path d="M7.36182 -118.587L361.895 239.072" stroke="white" stroke-width="3"/>
<path d="M-155.475 42.826L199.058 400.486" stroke="white" stroke-width="3"/>
<path d="M-62.4253 -49.4103L292.108 308.249" stroke="white" stroke-width="3"/>
<path d="M30.6245 -141.646L385.158 216.013" stroke="white" stroke-width="3"/>
<path d="M-132.213 19.767L222.32 377.427" stroke="white" stroke-width="3"/>
<path d="M-39.1631 -72.4694L315.37 285.19" stroke="white" stroke-width="3"/>
<path d="M53.8867 -164.706L408.42 192.954" stroke="white" stroke-width="3"/>
</g>
</svg>
