<svg width="101" height="221" viewBox="0 0 101 221" fill="none" xmlns="http://www.w3.org/2000/svg">
<mask id="mask0_353_1193" style="mask-type:alpha" maskUnits="userSpaceOnUse" x="0" y="0" width="101" height="221">
<rect width="101" height="221" fill="#B52E4E"/>
</mask>
<g mask="url(#mask0_353_1193)">
<path d="M-401.188 -82.4404L276.68 601.406" stroke="white" stroke-width="8"/>
<path d="M-223.277 -258.796L454.591 425.05" stroke="white" stroke-width="8"/>
<path d="M-45.366 -435.152L632.503 248.694" stroke="white" stroke-width="8"/>
<path d="M-356.711 -126.529L321.158 557.317" stroke="white" stroke-width="8"/>
<path d="M-178.8 -302.885L499.069 380.961" stroke="white" stroke-width="8"/>
<path d="M-0.887939 -479.241L676.981 204.606" stroke="white" stroke-width="8"/>
<path d="M-312.233 -170.618L365.636 513.228" stroke="white" stroke-width="8"/>
<path d="M-134.322 -346.974L543.547 336.872" stroke="white" stroke-width="8"/>
<path d="M43.5896 -523.33L721.458 160.516" stroke="white" stroke-width="8"/>
<path d="M-267.755 -214.707L410.113 469.139" stroke="white" stroke-width="8"/>
<path d="M-89.8438 -391.063L588.025 292.783" stroke="white" stroke-width="8"/>
<path d="M88.0671 -567.418L765.936 116.428" stroke="white" stroke-width="8"/>
<path d="M-390.069 -93.4624L287.8 590.384" stroke="white" stroke-width="8"/>
<path d="M-212.158 -269.819L465.711 414.028" stroke="white" stroke-width="8"/>
<path d="M-34.2463 -446.174L643.622 237.673" stroke="white" stroke-width="8"/>
<path d="M-345.591 -137.551L332.277 546.295" stroke="white" stroke-width="8"/>
<path d="M-167.68 -313.907L510.188 369.939" stroke="white" stroke-width="8"/>
<path d="M10.2314 -490.263L688.1 193.583" stroke="white" stroke-width="8"/>
<path d="M-301.114 -181.64L376.755 502.206" stroke="white" stroke-width="8"/>
<path d="M-123.202 -357.996L554.666 325.85" stroke="white" stroke-width="8"/>
<path d="M54.7092 -534.353L732.578 149.493" stroke="white" stroke-width="8"/>
<path d="M-256.635 -225.729L421.233 458.117" stroke="white" stroke-width="8"/>
<path d="M-78.7244 -402.085L599.144 281.761" stroke="white" stroke-width="8"/>
<path d="M99.1865 -578.442L777.055 105.405" stroke="white" stroke-width="8"/>
<path d="M-412.308 -71.4177L265.56 612.429" stroke="white" stroke-width="8"/>
<path d="M-234.397 -247.774L443.472 436.073" stroke="white" stroke-width="8"/>
<path d="M-56.4854 -424.13L621.383 259.716" stroke="white" stroke-width="8"/>
<path d="M-367.83 -115.507L310.039 568.34" stroke="white" stroke-width="8"/>
<path d="M-189.919 -291.863L487.95 391.983" stroke="white" stroke-width="8"/>
<path d="M-12.0078 -468.219L665.861 215.627" stroke="white" stroke-width="8"/>
<path d="M-323.353 -159.596L354.516 524.25" stroke="white" stroke-width="8"/>
<path d="M-145.441 -335.952L532.427 347.894" stroke="white" stroke-width="8"/>
<path d="M32.4702 -512.308L710.339 171.539" stroke="white" stroke-width="8"/>
<path d="M-278.875 -203.684L398.994 480.162" stroke="white" stroke-width="8"/>
<path d="M-100.963 -380.041L576.905 303.805" stroke="white" stroke-width="8"/>
<path d="M76.948 -556.397L754.817 127.449" stroke="white" stroke-width="8"/>
<path d="M-423.427 -60.3954L254.441 623.451" stroke="white" stroke-width="8"/>
<path d="M-245.516 -236.751L432.352 447.095" stroke="white" stroke-width="8"/>
<path d="M-67.605 -413.108L610.264 270.739" stroke="white" stroke-width="8"/>
<path d="M-378.95 -104.485L298.919 579.362" stroke="white" stroke-width="8"/>
<path d="M-201.039 -280.84L476.83 403.006" stroke="white" stroke-width="8"/>
<path d="M-23.127 -457.197L654.742 226.65" stroke="white" stroke-width="8"/>
<path d="M-334.472 -148.573L343.397 535.273" stroke="white" stroke-width="8"/>
<path d="M-156.561 -324.929L521.308 358.917" stroke="white" stroke-width="8"/>
<path d="M21.3508 -501.286L699.219 182.56" stroke="white" stroke-width="8"/>
<path d="M-289.994 -192.662L387.875 491.184" stroke="white" stroke-width="8"/>
<path d="M-112.083 -369.019L565.786 314.827" stroke="white" stroke-width="8"/>
<path d="M65.8286 -545.375L743.697 138.472" stroke="white" stroke-width="8"/>
</g>
</svg>
